<svg width="38" height="44" viewBox="0 0 38 44" fill="none" xmlns="http://www.w3.org/2000/svg">
<g filter="url(#filter0_d)">
<path d="M32.7306 15.2187C32.7306 25.616 19.3626 34.528 19.3626 34.528C19.3626 34.528 5.99463 25.616 5.99463 15.2187C5.99463 11.6733 7.40304 8.27306 9.91003 5.76607C12.417 3.25909 15.8172 1.85068 19.3626 1.85068C22.908 1.85068 26.3082 3.25909 28.8152 5.76607C31.3222 8.27306 32.7306 11.6733 32.7306 15.2187Z" fill="#FF5100"/>
<path d="M32.7306 15.2187C32.7306 25.616 19.3626 34.528 19.3626 34.528C19.3626 34.528 5.99463 25.616 5.99463 15.2187C5.99463 11.6733 7.40304 8.27306 9.91003 5.76607C12.417 3.25909 15.8172 1.85068 19.3626 1.85068C22.908 1.85068 26.3082 3.25909 28.8152 5.76607C31.3222 8.27306 32.7306 11.6733 32.7306 15.2187Z" stroke="#FF5100" stroke-width="2" stroke-linecap="round" stroke-linejoin="round"/>
</g>
<path d="M19.3627 19.6747C21.8237 19.6747 23.8187 17.6796 23.8187 15.2187C23.8187 12.7577 21.8237 10.7627 19.3627 10.7627C16.9018 10.7627 14.9067 12.7577 14.9067 15.2187C14.9067 17.6796 16.9018 19.6747 19.3627 19.6747Z" fill="white" stroke="white" stroke-width="2" stroke-linecap="round" stroke-linejoin="round"/>
<defs>
<filter id="filter0_d" x="0.994629" y="0.850677" width="36.736" height="42.6773" filterUnits="userSpaceOnUse" color-interpolation-filters="sRGB">
<feFlood flood-opacity="0" result="BackgroundImageFix"/>
<feColorMatrix in="SourceAlpha" type="matrix" values="0 0 0 0 0 0 0 0 0 0 0 0 0 0 0 0 0 0 127 0"/>
<feOffset dy="4"/>
<feGaussianBlur stdDeviation="2"/>
<feColorMatrix type="matrix" values="0 0 0 0 0 0 0 0 0 0 0 0 0 0 0 0 0 0 0.25 0"/>
<feBlend mode="normal" in2="BackgroundImageFix" result="effect1_dropShadow"/>
<feBlend mode="normal" in="SourceGraphic" in2="effect1_dropShadow" result="shape"/>
</filter>
</defs>
</svg>
