<svg width="176" height="211" viewBox="0 0 176 211" fill="none" xmlns="http://www.w3.org/2000/svg">
<rect x="11" y="11" width="165" height="165" fill="#FFC8AE"/>
<rect x="2.5" y="2.5" width="160" height="160" stroke="black" stroke-width="5"/>
<g clip-path="url(#clip0)">
<path d="M137.555 74.616C132.377 76.3598 127.224 78.1979 122.021 79.8621C119.625 80.6322 118.907 82.0232 119.729 84.3333C120.105 85.4063 120.461 86.4893 120.877 87.5475C121.56 89.2913 122.783 89.8477 124.585 89.2366C130.639 87.1799 136.708 85.1728 142.768 83.1211C143.995 82.7038 145.015 82.0331 144.99 80.503C145.183 75.3612 142.263 73.0313 137.555 74.616Z" fill="#E14D25"/>
<path d="M47.3853 80.0459C41.341 77.9843 35.2768 75.9723 29.2226 73.9503C27.3168 73.3144 25.9852 73.9503 25.3169 75.8481C24.8664 77.1099 24.4605 78.3916 24.1189 79.6883C23.7526 81.0644 24.1832 82.2716 25.5297 82.7485C32.0245 85.0635 38.5539 87.2941 44.5091 89.3558C46.5586 89.6688 47.509 89.0031 48.0189 87.7065C48.5288 86.4099 48.8951 85.1679 49.3406 83.906C50.0485 81.9189 49.2268 80.6719 47.3853 80.0459Z" fill="#E14D25"/>
<path d="M127.258 60.0501C127.169 57.9387 125.639 57.2432 124.446 56.3142C120.947 53.5918 120.348 53.6762 117.764 57.119C115.962 59.5202 114.168 61.9246 112.383 64.3324C109.026 68.8632 109.155 69.2308 113.605 72.6189C115.714 74.2235 117.249 74.1093 118.793 71.978C121.214 68.6247 123.743 65.3359 126.169 61.9975C126.574 61.3729 126.938 60.7224 127.258 60.0501Z" fill="#E14D25"/>
<path d="M45.4991 99.3066C44.8556 97.4089 43.5536 96.6984 41.6329 97.384C37.3427 98.9075 33.0755 100.449 28.8315 102.009C27.2276 102.6 26.584 103.778 27.0791 105.457C27.4602 106.744 27.886 108.02 28.3364 109.287C28.9651 111.046 30.173 111.726 31.9799 111.091C36.2701 109.58 40.5439 108.057 44.8011 106.52C46.0684 106.063 46.9545 105.283 46.7466 103.276C46.4298 102.263 45.9991 100.772 45.4991 99.3066Z" fill="#E14D25"/>
<path d="M140.54 102.188C135.926 100.429 131.258 98.7998 127.149 97.3144C125.134 96.9865 124.179 97.6025 123.684 98.929C123.278 99.9871 122.996 101.095 122.565 102.148C121.545 104.632 122.531 106.053 124.917 106.868C128.817 108.194 132.708 109.545 136.575 110.966C138.654 111.736 139.975 111.105 140.698 109.078C141.149 107.817 141.564 106.535 141.956 105.253C142.366 103.842 141.822 102.685 140.54 102.188Z" fill="#E14D25"/>
<path d="M53.5284 73.6026C55.7264 72.3904 58.0579 71.1186 59.1173 68.5701C58.9646 68.0392 58.752 67.5275 58.4837 67.0449C55.6026 63.1352 52.7215 59.2254 49.7712 55.3654C48.8949 54.2178 47.6673 54.1234 46.4594 54.9133C45.5089 55.5293 44.6377 56.2695 43.6971 56.9004C41.5636 58.3411 41.222 59.9657 42.8704 62.087C45.3456 65.2764 47.6574 68.5751 50.0583 71.8092C50.9246 72.9766 51.8849 74.5117 53.5284 73.6026Z" fill="#E14D25"/>
<path d="M68.1169 111.582H100.977" stroke="#010101" stroke-width="2.93" stroke-miterlimit="10"/>
<path d="M66.6666 114.007H101.947" stroke="#010101" stroke-width="2.93" stroke-miterlimit="10"/>
<path d="M117.471 117.822C109.32 96.2943 101.182 74.7667 93.0566 53.2391C92.2002 50.9538 91.1012 49.836 88.5765 50.0199C85.9973 50.2011 83.4086 50.2011 80.8293 50.0199C78.3542 49.8509 77.1364 50.8296 76.285 53.1645C73.0029 62.1068 69.5328 71.0043 66.127 79.9118C61.1767 92.888 56.2511 105.879 51.2315 118.83C50.3454 121.126 50.6474 122.089 53.2859 121.995C56.5878 121.876 59.9045 121.876 63.1865 121.995C65.3052 122.075 66.3992 121.15 67.0279 119.203C68.112 115.85 69.4536 112.576 70.4684 109.203C71.1565 106.912 72.4732 106.132 74.785 106.197C79.4334 106.326 84.0916 106.167 88.7399 106.247C89.6013 106.247 90.3636 106.247 91.0517 106.247V105.516H94.9179V106.232C97.9573 106.371 97.393 107.509 99.9276 114.31C103.437 123.679 101.076 121.712 110.511 121.96C111.858 121.96 113.199 121.96 114.546 121.96C118.808 121.945 118.956 121.737 117.471 117.822ZM79.8987 92.7489C79.1159 92.389 78.4163 91.8696 77.8443 91.2237C77.1926 90.4802 76.6885 89.6186 76.3592 88.6851C75.6505 86.6512 75.5236 84.4586 75.9929 82.356C76.4649 79.9094 77.5675 77.6296 79.1908 75.7437C80.0448 74.7314 81.0704 73.8787 82.2204 73.225C83.3882 72.5376 84.7131 72.1646 86.0668 72.142C86.9942 72.1322 87.9117 72.3344 88.7498 72.7332L88.8637 72.7928C88.6257 72.8811 88.3927 72.9823 88.1657 73.0958C87.4105 73.4925 86.7303 74.0188 86.1559 74.6508C85.3421 75.5472 84.6739 76.5665 84.1757 77.6713C83.5119 79.0656 83.1028 80.5682 82.9679 82.1076C82.9283 82.6202 82.9283 83.1351 82.9679 83.6477C83.0578 84.5906 83.071 85.5393 83.0075 86.4844C82.8824 87.7908 82.4662 89.0523 81.7897 90.1755C81.2678 91.0698 80.6891 91.9293 80.0571 92.7489C79.9927 92.7936 79.9531 92.7787 79.8987 92.7489ZM85.1509 92.7886C83.8786 93.307 82.4824 93.4383 81.1362 93.1662H81.062C81.3293 92.8035 81.5917 92.4508 81.8392 92.0882C82.4716 91.2044 83.0045 90.253 83.4282 89.2515C83.878 88.1236 84.1066 86.9192 84.1015 85.7044C84.1015 84.9294 84.0668 84.1594 84.0025 83.3893C83.9417 82.5125 84.0135 81.6315 84.2153 80.7762C84.5973 78.9791 85.3867 77.2945 86.5222 75.853C87.0407 75.1871 87.6787 74.6244 88.4033 74.1937C88.8881 73.903 89.4243 73.709 89.9824 73.6224C90.0109 73.6167 90.0403 73.6183 90.0679 73.627C90.0956 73.6357 90.1207 73.6512 90.1408 73.6721C90.7373 74.2024 91.2395 74.8307 91.6259 75.5301C92.4869 77.1233 92.9026 78.9206 92.8288 80.7315C92.7745 83.0982 92.1276 85.4131 90.9477 87.463C90.2176 88.7764 89.2662 89.953 88.136 90.9406C87.2555 91.7259 86.2454 92.3513 85.1509 92.7886Z" fill="#010101"/>
<path d="M91.2795 99.555C91.704 99.9223 92.1089 100.312 92.4923 100.722C92.7999 101.049 93.0539 101.423 93.2447 101.83C93.3638 102.071 93.4281 102.336 93.4328 102.605C93.4328 102.908 93.3685 102.973 93.0715 102.948C92.5352 102.909 92.0166 102.739 91.5616 102.451C90.126 101.547 89.5815 100.211 89.7201 98.5664C89.7482 98.1831 89.8146 97.8037 89.9181 97.4337C89.9528 97.2946 90.0023 97.23 90.1161 97.379C90.7601 98.1423 91.5985 98.7158 92.5418 99.0383C92.9998 99.2143 93.4224 99.4718 93.7893 99.7984C94.0969 100.07 94.3303 100.417 94.4672 100.804C94.604 101.192 94.6399 101.608 94.5714 102.014C94.5098 102.558 94.3308 103.082 94.047 103.55C93.7632 104.017 93.3813 104.417 92.9279 104.722C92.874 104.758 92.8178 104.792 92.7596 104.821C92.7596 104.821 92.7299 104.821 92.6705 104.821C92.881 104.613 93.0731 104.387 93.2447 104.145C93.4066 103.93 93.5459 103.699 93.6606 103.455C93.8632 103.055 93.9382 102.602 93.8753 102.157C93.8124 101.713 93.6147 101.299 93.3091 100.971C92.7559 100.342 92.0597 99.8561 91.2795 99.555Z" fill="#E14D25"/>
</g>
<path d="M10.9424 199.415C10.9424 198.849 10.7031 198.395 10.2246 198.053C9.74609 197.711 8.93066 197.403 7.77832 197.13C6.62598 196.856 5.6543 196.568 4.86328 196.266C4.08203 195.953 3.4375 195.587 2.92969 195.167C2.42188 194.747 2.0459 194.264 1.80176 193.717C1.55762 193.16 1.43555 192.501 1.43555 191.739C1.43555 190.274 2.0459 189.068 3.2666 188.121C4.4873 187.174 6.05957 186.7 7.9834 186.7C10.083 186.7 11.7773 187.179 13.0664 188.136C14.3652 189.083 15.0146 190.382 15.0146 192.032H10.7812C10.7812 191.407 10.5273 190.885 10.0195 190.465C9.52148 190.045 8.84766 189.835 7.99805 189.835C7.24609 189.835 6.63574 190.001 6.16699 190.333C5.69824 190.665 5.46387 191.08 5.46387 191.578C5.46387 192.076 5.70801 192.481 6.19629 192.794C6.68457 193.097 7.49512 193.39 8.62793 193.673C10.9033 194.171 12.5293 194.859 13.5059 195.738C14.4922 196.617 14.9854 197.804 14.9854 199.298C14.9854 200.821 14.3848 202.027 13.1836 202.916C11.9824 203.795 10.3418 204.234 8.26172 204.234C6.8457 204.234 5.56641 204.005 4.42383 203.546C3.28125 203.087 2.39746 202.433 1.77246 201.583C1.15723 200.733 0.849609 199.728 0.849609 198.565H5.09766C5.09766 199.474 5.37598 200.128 5.93262 200.528C6.49902 200.929 7.34375 201.129 8.4668 201.129C9.22852 201.129 9.8291 200.973 10.2686 200.66C10.7178 200.348 10.9424 199.933 10.9424 199.415ZM31.7871 186.935V197.979C31.7871 199.923 31.1572 201.451 29.8975 202.564C28.6377 203.678 26.8848 204.234 24.6387 204.234C22.4023 204.234 20.6445 203.678 19.3652 202.564C18.0859 201.451 17.4463 199.928 17.4463 197.994V186.935H21.6943V198.199C21.7529 199.957 22.7344 200.836 24.6387 200.836C25.5859 200.836 26.3037 200.616 26.792 200.177C27.29 199.737 27.5391 199.015 27.5391 198.009V186.935H31.7871ZM44.1357 199.415C44.1357 198.849 43.8965 198.395 43.418 198.053C42.9395 197.711 42.124 197.403 40.9717 197.13C39.8193 196.856 38.8477 196.568 38.0566 196.266C37.2754 195.953 36.6309 195.587 36.123 195.167C35.6152 194.747 35.2393 194.264 34.9951 193.717C34.751 193.16 34.6289 192.501 34.6289 191.739C34.6289 190.274 35.2393 189.068 36.46 188.121C37.6807 187.174 39.2529 186.7 41.1768 186.7C43.2764 186.7 44.9707 187.179 46.2598 188.136C47.5586 189.083 48.208 190.382 48.208 192.032H43.9746C43.9746 191.407 43.7207 190.885 43.2129 190.465C42.7148 190.045 42.041 189.835 41.1914 189.835C40.4395 189.835 39.8291 190.001 39.3604 190.333C38.8916 190.665 38.6572 191.08 38.6572 191.578C38.6572 192.076 38.9014 192.481 39.3896 192.794C39.8779 193.097 40.6885 193.39 41.8213 193.673C44.0967 194.171 45.7227 194.859 46.6992 195.738C47.6855 196.617 48.1787 197.804 48.1787 199.298C48.1787 200.821 47.5781 202.027 46.377 202.916C45.1758 203.795 43.5352 204.234 41.4551 204.234C40.0391 204.234 38.7598 204.005 37.6172 203.546C36.4746 203.087 35.5908 202.433 34.9658 201.583C34.3506 200.733 34.043 199.728 34.043 198.565H38.291C38.291 199.474 38.5693 200.128 39.126 200.528C39.6924 200.929 40.5371 201.129 41.6602 201.129C42.4219 201.129 43.0225 200.973 43.4619 200.66C43.9111 200.348 44.1357 199.933 44.1357 199.415ZM64.9658 190.362H59.4287V204H55.1807V190.362H49.7461V186.935H64.9658V190.362ZM77.5195 200.748H70.9131L69.7119 204H65.4639L72.2168 186.935H76.2012L83.0127 204H78.7354L77.5195 200.748ZM72.0557 197.643H76.3477L74.1943 191.871L72.0557 197.643ZM88.9746 204H84.7266V186.935H88.9746V204ZM107.402 204H103.169L96.4307 193.365V204H92.1826V186.935H96.4307L103.169 197.584V186.935H107.402V204ZM120.908 200.748H114.302L113.101 204H108.853L115.605 186.935H119.59L126.401 204H122.124L120.908 200.748ZM115.444 197.643H119.736L117.583 191.871L115.444 197.643ZM127.837 204V186.935H134.429C136.704 186.935 138.452 187.34 139.673 188.15C140.894 188.951 141.504 190.118 141.504 191.651C141.504 192.511 141.279 193.268 140.83 193.922C140.391 194.566 139.756 195.04 138.926 195.343C139.883 195.587 140.615 196.051 141.123 196.734C141.631 197.418 141.885 198.209 141.885 199.107C141.885 200.797 141.304 202.037 140.142 202.828C138.979 203.609 137.29 204 135.073 204H127.837ZM132.085 196.896V200.602H135.073C135.894 200.602 136.528 200.44 136.978 200.118C137.427 199.786 137.651 199.352 137.651 198.814C137.651 197.574 136.904 196.935 135.41 196.896H132.085ZM132.085 194.039H134.692C136.401 194.039 137.256 193.443 137.256 192.252C137.256 191.568 137.046 191.085 136.626 190.802C136.216 190.509 135.586 190.362 134.736 190.362H132.085V194.039ZM148.696 200.602H156.475V204H144.448V186.935H148.696V200.602ZM169.717 196.896H162.671V200.602H170.962V204H158.423V186.935H170.977V190.362H162.671V193.482H169.717V196.896Z" fill="black"/>
<defs>
<clipPath id="clip0">
<rect x="24" y="50" width="121" height="72" fill="white"/>
</clipPath>
</defs>
</svg>
