<svg width="22" height="22" viewBox="0 0 22 22" fill="none" xmlns="http://www.w3.org/2000/svg">
<path d="M19.9012 19.4937C19.7726 18.8503 18.9789 17.6277 17.5204 15.826C16.0619 14.0243 14.2566 12.0474 12.1046 9.89539C9.95258 7.74336 7.97572 5.93809 6.17402 4.47957C4.37233 3.02105 3.14975 2.22745 2.50628 2.09876C3.70741 0.983419 5.20525 0.311357 6.9998 0.0825698C8.79435 -0.146217 10.6568 0.100444 12.5872 0.822553C14.5176 1.54466 16.2514 2.6743 17.7885 4.21146C19.3257 5.74862 20.4553 7.4824 21.1774 9.41279C21.8996 11.3432 22.1462 13.2057 21.9174 15.0002C21.6886 16.7947 21.0166 18.2926 19.9012 19.4937ZM9.89539 12.1046C12.0474 14.2566 14.0243 16.0619 15.826 17.5204C17.6277 18.9789 18.8503 19.7726 19.4937 19.9012C18.2926 21.0166 16.7947 21.6886 15.0002 21.9174C13.2057 22.1462 11.3432 21.8996 9.41279 21.1774C7.4824 20.4553 5.74862 19.3257 4.21146 17.7885C2.6743 16.2514 1.54466 14.5176 0.822553 12.5872C0.100444 10.6568 -0.146217 8.79435 0.0825698 6.9998C0.311357 5.20525 0.983419 3.70741 2.09876 2.50628C2.22745 3.14975 3.02105 4.37233 4.47957 6.17402C5.93809 7.97572 7.74336 9.95258 9.89539 12.1046Z" fill="black"/>
</svg>
